<?xml version="1.0" encoding="UTF-8"?>
<svg version="1.1" viewBox="0 0 2000 2000" width="500" height="500" xmlns="http://www.w3.org/2000/svg">
<path transform="translate(1507,379)" d="m0 0 5 1 4 4 4 12 4 26 1 22-3 34-7 51-5 36-10 51-1 10 7-3 11-7 12-9 15-9 24-12 21-8 26-7 46-11 36-7 20-2 18-1h42l3 3 1 2v8l-7 12-13 15-12 14-9 10-9 11-11 12-9 11-10 11-9 11-11 13-11 14-14 17-8 10-10 13-12 16-16 25-10 13-14 19-13 16-10 13-10 11-7 8-9 10-23 23-11 9-13 11-20 14-22 13-16 8-34 16-19 8 2 4 43 6 41 9 33 9 29 10 27 11 33 16 39 20 25 12 26 12 29 11 40 12 65 14 5 3 2 3v7l-10 9-19 12-27 14-29 12-36 12-35 10-27 6-27 5-29 4-62 5-25 2h-21l-30-2-27-4-26-7-29-10-26-11-22-12-28-17-52-34-19-12-21-13-23-15-21-13-21-11-24-8-20-4h-19l-13 2-51 15-53 15-63 19-70 23-53 19-37 13-29 12-43 19-21 11-23 13-21 16-19 14-21 16-11 9-15 12-11 9-7 7-1 2 4 1 22-3 57-5 41-4 10-2 12-5 23-10 28-10 26-8 25-6 24-4 14-1h59l26 3 15 3 33 11 28 11 25 11 24 13 19 12 16 11 18 13 19 14 12 9 18 13 24 16 22 14 24 14 16 8 30 14 30 12 22 9 5 4 1 6-4 6-6 5-14 7-27 10-25 8-28 7-21 4-19 3-36 4-31 2-38 1-40-2-24-3-26-6-49-15-19-7-16-8-26-14-17-10-16-11-18-14-14-11-13-11-10-8-13-11-11-9-17-16-10-9-14-12-13-10-18-11-16-8-18-7-4-1h-19l-53 6-22 4-20 6-18 8-14 10-14 14-7 8-7 7-8 7-66 66h-2l-2 4-10 10-11 14-12 14-8 10-13 17-10 15-9 13-6 6h-7l-3-2 1-5 14-24 10-16 8-12 8-11 9-10 13-17 12-14 22-24 11-11 1-2h2l2-4 15-15 8-7 29-29 8-7 11-10 14-11 19-14 15-13 19-19 7-11 8-16 15-28 8-15 8-21 6-25 5-28 2-14 1-14v-31l-2-19-6-28-17-63-6-27-5-30v-68l4-45 7-30 9-31 7-19 9-19 13-21 26-38 12-16 8-11 9-10 10-9 9-5 9 1 11 7 7 7 7 11 5 13 3 19 3 70 4 45 6 43 7 45 8 58 1 16-1 31-3 23-7 32-8 27-10 27-15 33-15 29-15 25-12 17-13 18-3 5-1 4 17-7 31-14 29-12 37-14 85-29 28-10 54-16 44-14 42-12 55-13 15-6 10-6 12-11 4-5h2l2-4 10-12 12-17 10-18 9-19 10-25 10-30 12-38 14-49 9-26 11-26 9-19 9-16 8-13 12-17 13-17 11-13 7-8 15-16 8-7 10-9 10-8 16-13 14-11 10-8 14-11 22-18 12-11 4-2 1-3 14-14 11-14 14-19 12-17 12-18 10-17 17-29 7-12z" fill="#953E47"/>
</svg>
